{
  "source": "C:\\Users\\Peter\\Desktop\\stuff\\MIUN\\quantitative_research\\video_compression\\videos\\UVG\\ReadySteadyGo_1920x1080_120fps_420_8bit_YUV.y4m",
  "output": "C:\\Users\\Peter\\Desktop\\stuff\\MIUN\\quantitative_research\\video_compression\\compressed_videos\\UVG\\vp9\\8\\ReadySteadyGo_1920x1080_120fps_420_8bit_YUV_vp9.webm",
  "codec": "vp9",
  "ok": "[yuv4mpegpipe @ 0000020560a153c0] Stream #0: not enough frames to estimate rate; consider increasing probesize\nInput #0, yuv4mpegpipe, from 'C:\\Users\\Peter\\Desktop\\stuff\\MIUN\\quantitative_research\\video_compression\\videos\\UVG\\ReadySteadyGo_1920x1080_120fps_420_8bit_YUV.y4m':\n  Duration: 00:00:05.00, start: 0.000000, bitrate: 2985989 kb/s\n  Stream #0:0: Video: rawvideo (I420 / 0x30323449), yuv420p(progressive), 1920x1080, 120 fps, 120 tbr, 120 tbn\n[out#0/webm @ 0000020560a19080] Codec AVOption b:a (set bitrate (in bits/s)) has not been used for any stream. The most likely reason is either wrong type (e.g. a video option with no video streams) or that it is a private option of some decoder which was not actually used for any stream.\nStream mapping:\n  Stream #0:0 -> #0:0 (rawvideo (native) -> vp9 (libvpx-vp9))\nPress [q] to stop, [?] for help\n[libvpx-vp9 @ 0000020560a1c140] v1.15.2-100-g40561f514\nOutput #0, webm, to 'C:\\Users\\Peter\\Desktop\\stuff\\MIUN\\quantitative_research\\video_compression\\compressed_videos\\UVG\\vp9\\8\\ReadySteadyGo_1920x1080_120fps_420_8bit_YUV_vp9.webm':\n  Metadata:\n    encoder         : Lavf62.3.100\n  Stream #0:0: Video: vp9, yuv420p(tv, progressive), 1920x1080, q=2-31, 8000 kb/s, 120 fps, 1k tbn\n    Metadata:\n      encoder         : Lavc62.11.100 libvpx-vp9\n    Side data:\n      cpb: bitrate max/min/avg: 0/0/0 buffer size: 8000000 vbv_delay: N/A\nframe=    3 fps=0.0 q=54.0 size=       0KiB time=00:00:00.02 bitrate= 153.9kbits/s speed=0.0479x elapsed=0:00:00.52    \nframe=    8 fps=7.7 q=43.0 size=       0KiB time=00:00:00.06 bitrate=  57.7kbits/s speed=0.0644x elapsed=0:00:01.03    \nframe=   13 fps=8.4 q=42.0 size=       0KiB time=00:00:00.10 bitrate=  35.5kbits/s speed=0.0698x elapsed=0:00:01.55    \nframe=   18 fps=8.7 q=42.0 size=       0KiB time=00:00:00.15 bitrate=  25.7kbits/s speed=0.0726x elapsed=0:00:02.06    \nframe=   22 fps=8.5 q=43.0 size=       0KiB time=00:00:00.18 bitrate=  21.0kbits/s speed=0.0711x elapsed=0:00:02.57    \nframe=   27 fps=8.7 q=45.0 size=       0KiB time=00:00:00.22 bitrate=  17.1kbits/s speed=0.0727x elapsed=0:00:03.09    \nframe=   31 fps=8.6 q=31.0 size=       0KiB time=00:00:00.25 bitrate=  14.9kbits/s speed=0.0713x elapsed=0:00:03.62    \nframe=   36 fps=8.7 q=43.0 size=       0KiB time=00:00:00.30 bitrate=  12.8kbits/s speed=0.0726x elapsed=0:00:04.13    \nframe=   41 fps=8.8 q=42.0 size=       0KiB time=00:00:00.34 bitrate=  11.3kbits/s speed=0.0735x elapsed=0:00:04.65    \nframe=   45 fps=8.7 q=43.0 size=       0KiB time=00:00:00.37 bitrate=  10.3kbits/s speed=0.0726x elapsed=0:00:05.16    \nframe=   50 fps=8.8 q=45.0 size=       0KiB time=00:00:00.41 bitrate=   9.2kbits/s speed=0.0734x elapsed=0:00:05.67    \nframe=   55 fps=8.9 q=44.0 size=       0KiB time=00:00:00.45 bitrate=   8.4kbits/s speed=0.074x elapsed=0:00:06.19    \nframe=   60 fps=8.9 q=44.0 size=       0KiB time=00:00:00.50 bitrate=   7.7kbits/s speed=0.0745x elapsed=0:00:06.71    \nframe=   65 fps=9.0 q=39.0 size=       0KiB time=00:00:00.54 bitrate=   7.1kbits/s speed=0.075x elapsed=0:00:07.21    \nframe=   70 fps=9.1 q=40.0 size=       0KiB time=00:00:00.58 bitrate=   6.6kbits/s speed=0.0754x elapsed=0:00:07.73    \nframe=   75 fps=9.1 q=41.0 size=       0KiB time=00:00:00.62 bitrate=   6.2kbits/s speed=0.0757x elapsed=0:00:08.25    \nframe=   81 fps=9.2 q=43.0 size=       0KiB time=00:00:00.67 bitrate=   5.7kbits/s speed=0.0769x elapsed=0:00:08.77    \nframe=   85 fps=9.1 q=43.0 size=       0KiB time=00:00:00.70 bitrate=   5.4kbits/s speed=0.0761x elapsed=0:00:09.30    \nframe=   89 fps=9.1 q=43.0 size=       0KiB time=00:00:00.74 bitrate=   5.2kbits/s speed=0.0756x elapsed=0:00:09.81    \nframe=   95 fps=9.2 q=43.0 size=       0KiB time=00:00:00.79 bitrate=   4.9kbits/s speed=0.0766x elapsed=0:00:10.33    \nframe=  100 fps=9.2 q=43.0 size=       0KiB time=00:00:00.83 bitrate=   4.6kbits/s speed=0.0769x elapsed=0:00:10.84    \nframe=  104 fps=9.2 q=32.0 size=       0KiB time=00:00:00.86 bitrate=   4.4kbits/s speed=0.0763x elapsed=0:00:11.36    \nframe=  110 fps=9.3 q=45.0 size=       0KiB time=00:00:00.91 bitrate=   4.2kbits/s speed=0.0771x elapsed=0:00:11.88    \nframe=  115 fps=9.3 q=46.0 size=       0KiB time=00:00:00.95 bitrate=   4.0kbits/s speed=0.0773x elapsed=0:00:12.40    \nframe=  120 fps=9.3 q=47.0 size=       0KiB time=00:00:01.00 bitrate=   3.8kbits/s speed=0.0774x elapsed=0:00:12.91    \nframe=  126 fps=9.4 q=46.0 size=       0KiB time=00:00:01.05 bitrate=   3.7kbits/s speed=0.0781x elapsed=0:00:13.43    \nframe=  131 fps=9.4 q=44.0 size=     768KiB time=00:00:01.09 bitrate=5763.2kbits/s speed=0.0782x elapsed=0:00:13.95    \nframe=  137 fps=9.5 q=45.0 size=     768KiB time=00:00:01.14 bitrate=5510.8kbits/s speed=0.0789x elapsed=0:00:14.47    \nframe=  142 fps=9.5 q=44.0 size=     768KiB time=00:00:01.18 bitrate=5316.7kbits/s speed=0.079x elapsed=0:00:14.98    \nframe=  147 fps=9.5 q=45.0 size=     768KiB time=00:00:01.22 bitrate=5135.9kbits/s speed=0.079x elapsed=0:00:15.50    \nframe=  153 fps=9.5 q=46.0 size=     768KiB time=00:00:01.27 bitrate=4934.5kbits/s speed=0.0795x elapsed=0:00:16.03    \nframe=  158 fps=9.5 q=47.0 size=     768KiB time=00:00:01.31 bitrate=4778.3kbits/s speed=0.0795x elapsed=0:00:16.55    \nframe=  163 fps=9.6 q=47.0 size=     768KiB time=00:00:01.35 bitrate=4631.7kbits/s speed=0.0796x elapsed=0:00:17.06    \nframe=  169 fps=9.6 q=47.0 size=     768KiB time=00:00:01.40 bitrate=4467.3kbits/s speed=0.0801x elapsed=0:00:17.58    \nframe=  174 fps=9.6 q=47.0 size=     768KiB time=00:00:01.45 bitrate=4338.9kbits/s speed=0.0801x elapsed=0:00:18.09    \nframe=  179 fps=9.6 q=48.0 size=     768KiB time=00:00:01.49 bitrate=4217.7kbits/s speed=0.0801x elapsed=0:00:18.61    \nframe=  184 fps=9.6 q=47.0 size=     768KiB time=00:00:01.53 bitrate=4103.1kbits/s speed=0.0801x elapsed=0:00:19.13    \nframe=  189 fps=9.6 q=48.0 size=     768KiB time=00:00:01.57 bitrate=3994.6kbits/s speed=0.0801x elapsed=0:00:19.65    \nframe=  194 fps=9.6 q=49.0 size=     768KiB time=00:00:01.61 bitrate=3891.6kbits/s speed=0.0802x elapsed=0:00:20.16    \nframe=  199 fps=9.6 q=37.0 size=     768KiB time=00:00:01.65 bitrate=3793.8kbits/s speed=0.0802x elapsed=0:00:20.67    \nframe=  204 fps=9.6 q=50.0 size=     768KiB time=00:00:01.70 bitrate=3700.9kbits/s speed=0.0801x elapsed=0:00:21.22    \nframe=  210 fps=9.7 q=50.0 size=     768KiB time=00:00:01.75 bitrate=3595.1kbits/s speed=0.0805x elapsed=0:00:21.74    \nframe=  215 fps=9.7 q=50.0 size=     768KiB time=00:00:01.79 bitrate=3511.5kbits/s speed=0.0804x elapsed=0:00:22.27    \nframe=  219 fps=9.6 q=50.0 size=     768KiB time=00:00:01.82 bitrate=3447.4kbits/s speed=0.0801x elapsed=0:00:22.79    \nframe=  225 fps=9.6 q=50.0 size=     768KiB time=00:00:01.87 bitrate=3355.4kbits/s speed=0.0804x elapsed=0:00:23.31    \nframe=  230 fps=9.6 q=50.0 size=     768KiB time=00:00:01.91 bitrate=3282.5kbits/s speed=0.0804x elapsed=0:00:23.83    \nframe=  235 fps=9.7 q=51.0 size=     768KiB time=00:00:01.95 bitrate=3212.7kbits/s speed=0.0804x elapsed=0:00:24.34    \nframe=  240 fps=9.7 q=51.0 size=     768KiB time=00:00:02.00 bitrate=3145.7kbits/s speed=0.0805x elapsed=0:00:24.85    \nframe=  246 fps=9.7 q=51.0 size=     768KiB time=00:00:02.05 bitrate=3069.0kbits/s speed=0.0808x elapsed=0:00:25.38    \nframe=  250 fps=9.7 q=49.0 size=     768KiB time=00:00:02.08 bitrate=3019.9kbits/s speed=0.0804x elapsed=0:00:25.89    \nframe=  255 fps=9.7 q=49.0 size=     768KiB time=00:00:02.12 bitrate=2960.7kbits/s speed=0.0805x elapsed=0:00:26.41    \nframe=  261 fps=9.7 q=48.0 size=    1792KiB time=00:00:02.17 bitrate=6749.5kbits/s speed=0.0808x elapsed=0:00:26.93    \nframe=  266 fps=9.7 q=48.0 size=    1792KiB time=00:00:02.21 bitrate=6622.6kbits/s speed=0.0807x elapsed=0:00:27.46    \nframe=  271 fps=9.7 q=48.0 size=    1792KiB time=00:00:02.25 bitrate=6500.4kbits/s speed=0.0807x elapsed=0:00:27.97    \nframe=  276 fps=9.7 q=49.0 size=    1792KiB time=00:00:02.30 bitrate=6382.6kbits/s speed=0.0807x elapsed=0:00:28.48    \nframe=  282 fps=9.7 q=50.0 size=    1792KiB time=00:00:02.35 bitrate=6246.8kbits/s speed=0.081x elapsed=0:00:29.00    \nframe=  286 fps=9.7 q=50.0 size=    1792KiB time=00:00:02.38 bitrate=6159.5kbits/s speed=0.0807x elapsed=0:00:29.52    \nframe=  292 fps=9.7 q=49.0 size=    1792KiB time=00:00:02.43 bitrate=6032.9kbits/s speed=0.081x elapsed=0:00:30.03    \nframe=  297 fps=9.7 q=50.0 size=    1792KiB time=00:00:02.47 bitrate=5931.3kbits/s speed=0.081x elapsed=0:00:30.54    \nframe=  301 fps=9.7 q=50.0 size=    1792KiB time=00:00:02.50 bitrate=5852.5kbits/s speed=0.0807x elapsed=0:00:31.07    \nframe=  306 fps=9.7 q=49.0 size=    1792KiB time=00:00:02.55 bitrate=5756.9kbits/s speed=0.0807x elapsed=0:00:31.58    \nframe=  312 fps=9.7 q=49.0 size=    1792KiB time=00:00:02.60 bitrate=5646.2kbits/s speed=0.081x elapsed=0:00:32.09    \nframe=  316 fps=9.7 q=49.0 size=    1792KiB time=00:00:02.63 bitrate=5574.7kbits/s speed=0.0807x elapsed=0:00:32.63    \nframe=  322 fps=9.7 q=52.0 size=    1792KiB time=00:00:02.68 bitrate=5470.8kbits/s speed=0.0809x elapsed=0:00:33.16    \nframe=  327 fps=9.7 q=51.0 size=    1792KiB time=00:00:02.72 bitrate=5387.2kbits/s speed=0.0809x elapsed=0:00:33.68    \nframe=  332 fps=9.7 q=52.0 size=    1792KiB time=00:00:02.76 bitrate=5306.0kbits/s speed=0.0809x elapsed=0:00:34.21    \nframe=  337 fps=9.7 q=51.0 size=    1792KiB time=00:00:02.80 bitrate=5227.3kbits/s speed=0.0808x elapsed=0:00:34.73    \nframe=  342 fps=9.7 q=51.0 size=    1792KiB time=00:00:02.85 bitrate=5150.9kbits/s speed=0.0808x elapsed=0:00:35.25    \nframe=  346 fps=9.7 q=51.0 size=    1792KiB time=00:00:02.88 bitrate=5091.4kbits/s speed=0.0806x elapsed=0:00:35.76    \nframe=  351 fps=9.7 q=51.0 size=    1792KiB time=00:00:02.92 bitrate=5018.8kbits/s speed=0.0806x elapsed=0:00:36.29    \nframe=  357 fps=9.7 q=51.0 size=    1792KiB time=00:00:02.97 bitrate=4934.5kbits/s speed=0.0808x elapsed=0:00:36.81    \nframe=  362 fps=9.7 q=52.0 size=    1792KiB time=00:00:03.01 bitrate=4866.3kbits/s speed=0.0808x elapsed=0:00:37.33    \nframe=  366 fps=9.7 q=39.0 size=    1792KiB time=00:00:03.05 bitrate=4813.1kbits/s speed=0.0806x elapsed=0:00:37.86    \nframe=  372 fps=9.7 q=52.0 size=    1792KiB time=00:00:03.10 bitrate=4735.5kbits/s speed=0.0808x elapsed=0:00:38.38    \nframe=  376 fps=9.7 q=53.0 size=    1792KiB time=00:00:03.13 bitrate=4685.1kbits/s speed=0.0805x elapsed=0:00:38.91    \nframe=  381 fps=9.7 q=53.0 size=    1792KiB time=00:00:03.17 bitrate=4623.6kbits/s speed=0.0805x elapsed=0:00:39.43    \nframe=  385 fps=9.6 q=39.0 size=    1792KiB time=00:00:03.20 bitrate=4575.6kbits/s speed=0.0803x elapsed=0:00:39.94    \nframe=  391 fps=9.7 q=53.0 size=    2816KiB time=00:00:03.25 bitrate=7079.9kbits/s speed=0.0805x elapsed=0:00:40.45    \nframe=  397 fps=9.7 q=54.0 size=    2816KiB time=00:00:03.30 bitrate=6972.9kbits/s speed=0.0807x elapsed=0:00:40.98    \nframe=  402 fps=9.7 q=54.0 size=    2816KiB time=00:00:03.35 bitrate=6886.2kbits/s speed=0.0807x elapsed=0:00:41.50    \nframe=  407 fps=9.7 q=54.0 size=    2816KiB time=00:00:03.39 bitrate=6801.6kbits/s speed=0.0807x elapsed=0:00:42.03    \nframe=  412 fps=9.7 q=54.0 size=    2816KiB time=00:00:03.43 bitrate=6719.0kbits/s speed=0.0807x elapsed=0:00:42.55    \nframe=  416 fps=9.7 q=53.0 size=    2816KiB time=00:00:03.46 bitrate=6654.4kbits/s speed=0.0805x elapsed=0:00:43.07    \nframe=  421 fps=9.7 q=54.0 size=    2816KiB time=00:00:03.50 bitrate=6575.4kbits/s speed=0.0805x elapsed=0:00:43.59    \nframe=  426 fps=9.7 q=53.0 size=    2816KiB time=00:00:03.55 bitrate=6498.2kbits/s speed=0.0805x elapsed=0:00:44.11    \nframe=  431 fps=9.7 q=53.0 size=    2816KiB time=00:00:03.59 bitrate=6422.8kbits/s speed=0.0805x elapsed=0:00:44.63    \nframe=  435 fps=9.6 q=53.0 size=    2816KiB time=00:00:03.62 bitrate=6363.8kbits/s speed=0.0803x elapsed=0:00:45.14    \nframe=  440 fps=9.6 q=53.0 size=    2816KiB time=00:00:03.66 bitrate=6291.5kbits/s speed=0.0803x elapsed=0:00:45.66    \nframe=  444 fps=9.6 q=53.0 size=    2816KiB time=00:00:03.70 bitrate=6234.8kbits/s speed=0.0801x elapsed=0:00:46.18    \nframe=  449 fps=9.6 q=53.0 size=    2816KiB time=00:00:03.74 bitrate=6165.3kbits/s speed=0.0801x elapsed=0:00:46.68    \nframe=  453 fps=9.6 q=53.0 size=    2816KiB time=00:00:03.77 bitrate=6110.9kbits/s speed=0.08x elapsed=0:00:47.20    \nframe=  458 fps=9.6 q=53.0 size=    2816KiB time=00:00:03.81 bitrate=6044.2kbits/s speed=0.08x elapsed=0:00:47.72    \nframe=  462 fps=9.6 q=40.0 size=    2816KiB time=00:00:03.85 bitrate=5991.9kbits/s speed=0.0798x elapsed=0:00:48.25    \nframe=  468 fps=9.6 q=52.0 size=    2816KiB time=00:00:03.90 bitrate=5915.0kbits/s speed=0.08x elapsed=0:00:48.76    \nframe=  472 fps=9.6 q=52.0 size=    2816KiB time=00:00:03.93 bitrate=5864.9kbits/s speed=0.0798x elapsed=0:00:49.28    \nframe=  476 fps=9.6 q=38.0 size=    2816KiB time=00:00:03.96 bitrate=5815.6kbits/s speed=0.0797x elapsed=0:00:49.79    \nframe=  481 fps=9.6 q=52.0 size=    2816KiB time=00:00:04.00 bitrate=5755.2kbits/s speed=0.0797x elapsed=0:00:50.31    \nframe=  485 fps=9.5 q=51.0 size=    2816KiB time=00:00:04.04 bitrate=5707.7kbits/s speed=0.0795x elapsed=0:00:50.84    \nframe=  489 fps=9.5 q=51.0 size=    2816KiB time=00:00:04.07 bitrate=5661.0kbits/s speed=0.0793x elapsed=0:00:51.36    \nframe=  495 fps=9.5 q=50.0 size=    2816KiB time=00:00:04.12 bitrate=5592.4kbits/s speed=0.0795x elapsed=0:00:51.87    \nframe=  499 fps=9.5 q=50.0 size=    2816KiB time=00:00:04.15 bitrate=5547.6kbits/s speed=0.0794x elapsed=0:00:52.40    \nframe=  503 fps=9.5 q=50.0 size=    2816KiB time=00:00:04.19 bitrate=5503.5kbits/s speed=0.0792x elapsed=0:00:52.92    \nframe=  508 fps=9.5 q=48.0 size=    2816KiB time=00:00:04.23 bitrate=5449.3kbits/s speed=0.0792x elapsed=0:00:53.44    \nframe=  512 fps=9.5 q=48.0 size=    2816KiB time=00:00:04.26 bitrate=5406.7kbits/s speed=0.0791x elapsed=0:00:53.96    \nframe=  517 fps=9.5 q=49.0 size=    3840KiB time=00:00:04.30 bitrate=7301.5kbits/s speed=0.0791x elapsed=0:00:54.48    \nframe=  522 fps=9.5 q=48.0 size=    3840KiB time=00:00:04.35 bitrate=7231.6kbits/s speed=0.0791x elapsed=0:00:55.00    \nframe=  526 fps=9.5 q=49.0 size=    3840KiB time=00:00:04.38 bitrate=7176.6kbits/s speed=0.0789x elapsed=0:00:55.53    \nframe=  531 fps=9.5 q=51.0 size=    3840KiB time=00:00:04.42 bitrate=7109.0kbits/s speed=0.0789x elapsed=0:00:56.05    \nframe=  536 fps=9.5 q=51.0 size=    3840KiB time=00:00:04.46 bitrate=7042.7kbits/s speed=0.0789x elapsed=0:00:56.58    \nframe=  541 fps=9.5 q=51.0 size=    3840KiB time=00:00:04.50 bitrate=6977.6kbits/s speed=0.0789x elapsed=0:00:57.10    \nframe=  546 fps=9.5 q=45.0 size=    3840KiB time=00:00:04.55 bitrate=6913.7kbits/s speed=0.079x elapsed=0:00:57.62    \nframe=  551 fps=9.5 q=45.0 size=    3840KiB time=00:00:04.59 bitrate=6850.9kbits/s speed=0.079x elapsed=0:00:58.14    \nframe=  555 fps=9.5 q=45.0 size=    3840KiB time=00:00:04.62 bitrate=6801.6kbits/s speed=0.0788x elapsed=0:00:58.67    \nframe=  559 fps=9.4 q=45.0 size=    3840KiB time=00:00:04.65 bitrate=6752.9kbits/s speed=0.0787x elapsed=0:00:59.20    \nframe=  564 fps=9.4 q=45.0 size=    3840KiB time=00:00:04.70 bitrate=6693.0kbits/s speed=0.0787x elapsed=0:00:59.72    \nframe=  569 fps=9.4 q=44.0 size=    3840KiB time=00:00:04.74 bitrate=6634.2kbits/s speed=0.0787x elapsed=0:01:00.23    \nframe=  573 fps=9.4 q=46.0 size=    3840KiB time=00:00:04.77 bitrate=6587.9kbits/s speed=0.0786x elapsed=0:01:00.74    \nframe=  576 fps=9.4 q=45.0 size=    3840KiB time=00:00:04.80 bitrate=6553.6kbits/s speed=0.0783x elapsed=0:01:01.27    \nframe=  576 fps=9.3 q=45.0 size=    3840KiB time=00:00:04.80 bitrate=6553.6kbits/s speed=0.0777x elapsed=0:01:01.78    \nframe=  576 fps=9.2 q=45.0 size=    3840KiB time=00:00:04.80 bitrate=6553.6kbits/s speed=0.077x elapsed=0:01:02.29    \nframe=  576 fps=9.2 q=45.0 size=    3840KiB time=00:00:04.80 bitrate=6553.6kbits/s speed=0.0764x elapsed=0:01:02.81    \nframe=  576 fps=9.1 q=45.0 size=    3840KiB time=00:00:04.80 bitrate=6553.6kbits/s speed=0.0758x elapsed=0:01:03.33    \n[out#0/webm @ 0000020560a19080] video:4818KiB audio:0KiB subtitle:0KiB other streams:0KiB global headers:0KiB muxing overhead: 0.099361%\nframe=  600 fps=9.4 q=40.0 Lsize=    4823KiB time=00:00:05.00 bitrate=7901.5kbits/s speed=0.0787x elapsed=0:01:03.53    \n",
  "seconds": 63.649874210357666,
  "probe_out": {}
}